solid OpenSCAD_Model
  facet normal 0 1 0
    outer loop
      vertex 68 96 0
      vertex 0 96 32.5
      vertex 68 96 32.5
    endloop
  endfacet
  facet normal 0 1 0
    outer loop
      vertex 0 96 32.5
      vertex 68 96 0
      vertex 0 96 0
    endloop
  endfacet
  facet normal 0 0 -1
    outer loop
      vertex 17 0 0
      vertex 0 0 0
      vertex 17 79 0
    endloop
  endfacet
  facet normal 0 0 -1
    outer loop
      vertex 51 79 0
      vertex 68 0 0
      vertex 51 0 0
    endloop
  endfacet
  facet normal 0 0 -1
    outer loop
      vertex 68 0 0
      vertex 51 79 0
      vertex 68 96 0
    endloop
  endfacet
  facet normal 0 0 -1
    outer loop
      vertex 17 79 0
      vertex 68 96 0
      vertex 51 79 0
    endloop
  endfacet
  facet normal 0 0 -1
    outer loop
      vertex 17 79 0
      vertex 0 96 0
      vertex 68 96 0
    endloop
  endfacet
  facet normal 0 0 -1
    outer loop
      vertex 0 96 0
      vertex 17 79 0
      vertex 0 0 0
    endloop
  endfacet
  facet normal 0 -1 0
    outer loop
      vertex 0 0 32.5
      vertex 3 0 1
      vertex 3 0 32.5
    endloop
  endfacet
  facet normal 0 -1 0
    outer loop
      vertex 0 0 0
      vertex 3 0 1
      vertex 0 0 32.5
    endloop
  endfacet
  facet normal 0 -1 0
    outer loop
      vertex 17 0 0
      vertex 3 0 1
      vertex 0 0 0
    endloop
  endfacet
  facet normal 0 -1 0
    outer loop
      vertex 3 0 1
      vertex 17 0 0
      vertex 17 0 1
    endloop
  endfacet
  facet normal 0 -1 0
    outer loop
      vertex 51 0 1
      vertex 51 0 0
      vertex 65 0 1
    endloop
  endfacet
  facet normal 0 -1 0
    outer loop
      vertex 65 0 1
      vertex 68 0 32.5
      vertex 65 0 32.5
    endloop
  endfacet
  facet normal 0 -1 0
    outer loop
      vertex 65 0 1
      vertex 68 0 0
      vertex 68 0 32.5
    endloop
  endfacet
  facet normal 0 -1 0
    outer loop
      vertex 68 0 0
      vertex 65 0 1
      vertex 51 0 0
    endloop
  endfacet
  facet normal 1 0 0
    outer loop
      vertex 68 0 32.5
      vertex 68 96 0
      vertex 68 96 32.5
    endloop
  endfacet
  facet normal 1 0 0
    outer loop
      vertex 68 96 0
      vertex 68 0 32.5
      vertex 68 0 0
    endloop
  endfacet
  facet normal -1 0 0
    outer loop
      vertex 0 0 0
      vertex 0 96 32.5
      vertex 0 96 0
    endloop
  endfacet
  facet normal -1 0 0
    outer loop
      vertex 0 96 32.5
      vertex 0 0 0
      vertex 0 0 32.5
    endloop
  endfacet
  facet normal 0 0 1
    outer loop
      vertex 68 96 32.5
      vertex 65 94.80000305175781 32.5
      vertex 68 0 32.5
    endloop
  endfacet
  facet normal 0 0 1
    outer loop
      vertex 68 96 32.5
      vertex 3 94.80000305175781 32.5
      vertex 65 94.80000305175781 32.5
    endloop
  endfacet
  facet normal 0 0 1
    outer loop
      vertex 0 96 32.5
      vertex 3 94.80000305175781 32.5
      vertex 68 96 32.5
    endloop
  endfacet
  facet normal 0 0 1
    outer loop
      vertex 0 0 32.5
      vertex 3 94.80000305175781 32.5
      vertex 0 96 32.5
    endloop
  endfacet
  facet normal 0 0 1
    outer loop
      vertex 3 94.80000305175781 32.5
      vertex 0 0 32.5
      vertex 3 0 32.5
    endloop
  endfacet
  facet normal 0 0 1
    outer loop
      vertex 68 0 32.5
      vertex 65 94.80000305175781 32.5
      vertex 65 0 32.5
    endloop
  endfacet
  facet normal 0 -1 0
    outer loop
      vertex 3 94.80000305175781 1
      vertex 65 94.80000305175781 32.5
      vertex 3 94.80000305175781 32.5
    endloop
  endfacet
  facet normal 0 -1 0
    outer loop
      vertex 65 94.80000305175781 32.5
      vertex 3 94.80000305175781 1
      vertex 65 94.80000305175781 1
    endloop
  endfacet
  facet normal 0 0 1
    outer loop
      vertex 65 94.80000305175781 1
      vertex 51 79 1
      vertex 65 0 1
    endloop
  endfacet
  facet normal 0 0 1
    outer loop
      vertex 65 94.80000305175781 1
      vertex 17 79 1
      vertex 51 79 1
    endloop
  endfacet
  facet normal 0 0 1
    outer loop
      vertex 3 94.80000305175781 1
      vertex 17 79 1
      vertex 65 94.80000305175781 1
    endloop
  endfacet
  facet normal 0 0 1
    outer loop
      vertex 3 0 1
      vertex 17 79 1
      vertex 3 94.80000305175781 1
    endloop
  endfacet
  facet normal 0 0 1
    outer loop
      vertex 17 79 1
      vertex 3 0 1
      vertex 17 0 1
    endloop
  endfacet
  facet normal 0 0 1
    outer loop
      vertex 65 0 1
      vertex 51 79 1
      vertex 51 0 1
    endloop
  endfacet
  facet normal -1 0 0
    outer loop
      vertex 65 0 1
      vertex 65 94.80000305175781 32.5
      vertex 65 94.80000305175781 1
    endloop
  endfacet
  facet normal -1 0 0
    outer loop
      vertex 65 94.80000305175781 32.5
      vertex 65 0 1
      vertex 65 0 32.5
    endloop
  endfacet
  facet normal 1 0 0
    outer loop
      vertex 3 0 32.5
      vertex 3 94.80000305175781 1
      vertex 3 94.80000305175781 32.5
    endloop
  endfacet
  facet normal 1 0 0
    outer loop
      vertex 3 94.80000305175781 1
      vertex 3 0 32.5
      vertex 3 0 1
    endloop
  endfacet
  facet normal 0 -1 0
    outer loop
      vertex 17 79 0
      vertex 51 79 1
      vertex 17 79 1
    endloop
  endfacet
  facet normal 0 -1 0
    outer loop
      vertex 51 79 1
      vertex 17 79 0
      vertex 51 79 0
    endloop
  endfacet
  facet normal 1 0 0
    outer loop
      vertex 17 0 1
      vertex 17 79 0
      vertex 17 79 1
    endloop
  endfacet
  facet normal 1 0 0
    outer loop
      vertex 17 79 0
      vertex 17 0 1
      vertex 17 0 0
    endloop
  endfacet
  facet normal -1 0 0
    outer loop
      vertex 51 0 0
      vertex 51 79 1
      vertex 51 79 0
    endloop
  endfacet
  facet normal -1 0 0
    outer loop
      vertex 51 79 1
      vertex 51 0 0
      vertex 51 0 1
    endloop
  endfacet
endsolid OpenSCAD_Model
