solid OpenSCAD_Model
  facet normal 0 1 0
    outer loop
      vertex 49 75 0
      vertex 0 75 63
      vertex 49 75 63
    endloop
  endfacet
  facet normal 0 1 0
    outer loop
      vertex 0 75 63
      vertex 49 75 0
      vertex 0 75 0
    endloop
  endfacet
  facet normal 0 0 1
    outer loop
      vertex 49 75 63
      vertex 47 73 63
      vertex 49 0 63
    endloop
  endfacet
  facet normal 0 0 1
    outer loop
      vertex 49 75 63
      vertex 2 73 63
      vertex 47 73 63
    endloop
  endfacet
  facet normal 0 0 1
    outer loop
      vertex 0 75 63
      vertex 2 73 63
      vertex 49 75 63
    endloop
  endfacet
  facet normal 0 0 1
    outer loop
      vertex 0 0 63
      vertex 2 73 63
      vertex 0 75 63
    endloop
  endfacet
  facet normal 0 0 1
    outer loop
      vertex 2 73 63
      vertex 0 0 63
      vertex 2 0 63
    endloop
  endfacet
  facet normal 0 0 1
    outer loop
      vertex 49 0 63
      vertex 47 73 63
      vertex 47 0 63
    endloop
  endfacet
  facet normal 0 0 -1
    outer loop
      vertex 11.25 0 0
      vertex 0 0 0
      vertex 11.25 59.75 0
    endloop
  endfacet
  facet normal 0 0 -1
    outer loop
      vertex 33.75 59.75 0
      vertex 49 0 0
      vertex 33.75 0 0
    endloop
  endfacet
  facet normal 0 0 -1
    outer loop
      vertex 49 0 0
      vertex 33.75 59.75 0
      vertex 49 75 0
    endloop
  endfacet
  facet normal 0 0 -1
    outer loop
      vertex 0 75 0
      vertex 33.75 59.75 0
      vertex 11.25 59.75 0
    endloop
  endfacet
  facet normal 0 0 -1
    outer loop
      vertex 33.75 59.75 0
      vertex 0 75 0
      vertex 49 75 0
    endloop
  endfacet
  facet normal 0 0 -1
    outer loop
      vertex 0 75 0
      vertex 11.25 59.75 0
      vertex 0 0 0
    endloop
  endfacet
  facet normal 0 -1 0
    outer loop
      vertex 0 0 63
      vertex 2 0 2
      vertex 2 0 63
    endloop
  endfacet
  facet normal 0 -1 0
    outer loop
      vertex 0 0 0
      vertex 2 0 2
      vertex 0 0 63
    endloop
  endfacet
  facet normal 0 -1 0
    outer loop
      vertex 11.25 0 0
      vertex 2 0 2
      vertex 0 0 0
    endloop
  endfacet
  facet normal 0 -1 0
    outer loop
      vertex 2 0 2
      vertex 11.25 0 0
      vertex 11.25 0 2
    endloop
  endfacet
  facet normal 0 -1 0
    outer loop
      vertex 33.75 0 2
      vertex 33.75 0 0
      vertex 47 0 2
    endloop
  endfacet
  facet normal 0 -1 0
    outer loop
      vertex 47 0 2
      vertex 49 0 63
      vertex 47 0 63
    endloop
  endfacet
  facet normal 0 -1 0
    outer loop
      vertex 47 0 2
      vertex 49 0 0
      vertex 49 0 63
    endloop
  endfacet
  facet normal 0 -1 0
    outer loop
      vertex 49 0 0
      vertex 47 0 2
      vertex 33.75 0 0
    endloop
  endfacet
  facet normal 1 0 0
    outer loop
      vertex 49 0 63
      vertex 49 75 0
      vertex 49 75 63
    endloop
  endfacet
  facet normal 1 0 0
    outer loop
      vertex 49 75 0
      vertex 49 0 63
      vertex 49 0 0
    endloop
  endfacet
  facet normal -1 0 0
    outer loop
      vertex 0 0 0
      vertex 0 75 63
      vertex 0 75 0
    endloop
  endfacet
  facet normal -1 0 0
    outer loop
      vertex 0 75 63
      vertex 0 0 0
      vertex 0 0 63
    endloop
  endfacet
  facet normal 0 -1 0
    outer loop
      vertex 2 73 2
      vertex 47 73 63
      vertex 2 73 63
    endloop
  endfacet
  facet normal 0 -1 0
    outer loop
      vertex 47 73 63
      vertex 2 73 2
      vertex 47 73 2
    endloop
  endfacet
  facet normal 0 0 1
    outer loop
      vertex 47 73 2
      vertex 33.75 59.75 2
      vertex 47 0 2
    endloop
  endfacet
  facet normal 0 0 1
    outer loop
      vertex 2 73 2
      vertex 33.75 59.75 2
      vertex 47 73 2
    endloop
  endfacet
  facet normal 0 0 1
    outer loop
      vertex 33.75 59.75 2
      vertex 2 73 2
      vertex 11.25 59.75 2
    endloop
  endfacet
  facet normal 0 0 1
    outer loop
      vertex 2 0 2
      vertex 11.25 59.75 2
      vertex 2 73 2
    endloop
  endfacet
  facet normal 0 0 1
    outer loop
      vertex 11.25 59.75 2
      vertex 2 0 2
      vertex 11.25 0 2
    endloop
  endfacet
  facet normal 0 0 1
    outer loop
      vertex 47 0 2
      vertex 33.75 59.75 2
      vertex 33.75 0 2
    endloop
  endfacet
  facet normal 1 0 0
    outer loop
      vertex 2 0 63
      vertex 2 73 2
      vertex 2 73 63
    endloop
  endfacet
  facet normal 1 0 0
    outer loop
      vertex 2 73 2
      vertex 2 0 63
      vertex 2 0 2
    endloop
  endfacet
  facet normal -1 0 0
    outer loop
      vertex 47 0 2
      vertex 47 73 63
      vertex 47 73 2
    endloop
  endfacet
  facet normal -1 0 0
    outer loop
      vertex 47 73 63
      vertex 47 0 2
      vertex 47 0 63
    endloop
  endfacet
  facet normal 0 -1 0
    outer loop
      vertex 11.25 59.75 0
      vertex 33.75 59.75 2
      vertex 11.25 59.75 2
    endloop
  endfacet
  facet normal 0 -1 0
    outer loop
      vertex 33.75 59.75 2
      vertex 11.25 59.75 0
      vertex 33.75 59.75 0
    endloop
  endfacet
  facet normal 1 0 0
    outer loop
      vertex 11.25 0 2
      vertex 11.25 59.75 0
      vertex 11.25 59.75 2
    endloop
  endfacet
  facet normal 1 0 0
    outer loop
      vertex 11.25 59.75 0
      vertex 11.25 0 2
      vertex 11.25 0 0
    endloop
  endfacet
  facet normal -1 0 0
    outer loop
      vertex 33.75 0 0
      vertex 33.75 59.75 2
      vertex 33.75 59.75 0
    endloop
  endfacet
  facet normal -1 0 0
    outer loop
      vertex 33.75 59.75 2
      vertex 33.75 0 0
      vertex 33.75 0 2
    endloop
  endfacet
endsolid OpenSCAD_Model
