solid OpenSCAD_Model
  facet normal 0 1 0
    outer loop
      vertex 49 75 0
      vertex 0 75 31.5
      vertex 49 75 31.5
    endloop
  endfacet
  facet normal 0 1 0
    outer loop
      vertex 0 75 31.5
      vertex 49 75 0
      vertex 0 75 0
    endloop
  endfacet
  facet normal 0 0 -1
    outer loop
      vertex 0 0 0
      vertex 49 75 0
      vertex 49 0 0
    endloop
  endfacet
  facet normal 0 0 -1
    outer loop
      vertex 49 75 0
      vertex 0 0 0
      vertex 0 75 0
    endloop
  endfacet
  facet normal 0 -1 0
    outer loop
      vertex 0 0 0
      vertex 49 0 31.5
      vertex 0 0 31.5
    endloop
  endfacet
  facet normal 0 -1 0
    outer loop
      vertex 49 0 31.5
      vertex 0 0 0
      vertex 49 0 0
    endloop
  endfacet
  facet normal -1 0 0
    outer loop
      vertex 0 0 0
      vertex 0 75 31.5
      vertex 0 75 0
    endloop
  endfacet
  facet normal -1 0 0
    outer loop
      vertex 0 75 31.5
      vertex 0 0 0
      vertex 0 0 31.5
    endloop
  endfacet
  facet normal 0 0 1
    outer loop
      vertex 49 75 31.5
      vertex 47 73 31.5
      vertex 49 0 31.5
    endloop
  endfacet
  facet normal 0 0 1
    outer loop
      vertex 49 75 31.5
      vertex 2 73 31.5
      vertex 47 73 31.5
    endloop
  endfacet
  facet normal 0 0 1
    outer loop
      vertex 2 73 31.5
      vertex 0 75 31.5
      vertex 2 2 31.5
    endloop
  endfacet
  facet normal 0 0 1
    outer loop
      vertex 0 75 31.5
      vertex 2 73 31.5
      vertex 49 75 31.5
    endloop
  endfacet
  facet normal 0 0 1
    outer loop
      vertex 47 2 31.5
      vertex 49 0 31.5
      vertex 47 73 31.5
    endloop
  endfacet
  facet normal 0 0 1
    outer loop
      vertex 2 2 31.5
      vertex 49 0 31.5
      vertex 47 2 31.5
    endloop
  endfacet
  facet normal 0 0 1
    outer loop
      vertex 2 2 31.5
      vertex 0 0 31.5
      vertex 49 0 31.5
    endloop
  endfacet
  facet normal 0 0 1
    outer loop
      vertex 0 0 31.5
      vertex 2 2 31.5
      vertex 0 75 31.5
    endloop
  endfacet
  facet normal 1 0 0
    outer loop
      vertex 49 0 31.5
      vertex 49 75 0
      vertex 49 75 31.5
    endloop
  endfacet
  facet normal 1 0 0
    outer loop
      vertex 49 75 0
      vertex 49 0 31.5
      vertex 49 0 0
    endloop
  endfacet
  facet normal 0 -1 0
    outer loop
      vertex 2 73 2
      vertex 47 73 31.5
      vertex 2 73 31.5
    endloop
  endfacet
  facet normal 0 -1 0
    outer loop
      vertex 47 73 31.5
      vertex 2 73 2
      vertex 47 73 2
    endloop
  endfacet
  facet normal 0 0 1
    outer loop
      vertex 2 73 2
      vertex 47 2 2
      vertex 47 73 2
    endloop
  endfacet
  facet normal 0 0 1
    outer loop
      vertex 47 2 2
      vertex 2 73 2
      vertex 2 2 2
    endloop
  endfacet
  facet normal 0 1 0
    outer loop
      vertex 47 2 2
      vertex 2 2 31.5
      vertex 47 2 31.5
    endloop
  endfacet
  facet normal 0 1 0
    outer loop
      vertex 2 2 31.5
      vertex 47 2 2
      vertex 2 2 2
    endloop
  endfacet
  facet normal 1 0 0
    outer loop
      vertex 2 2 31.5
      vertex 2 73 2
      vertex 2 73 31.5
    endloop
  endfacet
  facet normal 1 0 0
    outer loop
      vertex 2 73 2
      vertex 2 2 31.5
      vertex 2 2 2
    endloop
  endfacet
  facet normal -1 0 0
    outer loop
      vertex 47 2 2
      vertex 47 73 31.5
      vertex 47 73 2
    endloop
  endfacet
  facet normal -1 0 0
    outer loop
      vertex 47 73 31.5
      vertex 47 2 2
      vertex 47 2 31.5
    endloop
  endfacet
endsolid OpenSCAD_Model
